<svg width="18" height="18" viewBox="0 0 18 18" fill="none" xmlns="http://www.w3.org/2000/svg">
<mask id="mask0_27698_85205" style="mask-type:alpha" maskUnits="userSpaceOnUse" x="0" y="0" width="18" height="18">
<rect width="18" height="18" fill="#D9D9D9"/>
</mask>
<g mask="url(#mask0_27698_85205)">
<path d="M13.5 9.9375L15 11.4375V15C15 15.4125 14.8531 15.7656 14.5594 16.0594C14.2656 16.3531 13.9125 16.5 13.5 16.5H3C2.5875 16.5 2.23438 16.3531 1.94063 16.0594C1.64688 15.7656 1.5 15.4125 1.5 15V4.5C1.5 4.0875 1.64688 3.73438 1.94063 3.44063C2.23438 3.14688 2.5875 3 3 3H7.125C7.025 3.225 6.95 3.46563 6.9 3.72188C6.85 3.97813 6.8125 4.2375 6.7875 4.5H3V15H13.5V9.9375ZM14.475 6.675L16.875 9.075L15.825 10.125L13.425 7.725C13.1625 7.875 12.8813 8 12.5813 8.1C12.2812 8.2 11.9625 8.25 11.625 8.25C10.6875 8.25 9.89062 7.92188 9.23438 7.26562C8.57812 6.60938 8.25 5.8125 8.25 4.875C8.25 3.9375 8.57812 3.14062 9.23438 2.48438C9.89062 1.82812 10.6875 1.5 11.625 1.5C12.5625 1.5 13.3594 1.82812 14.0156 2.48438C14.6719 3.14062 15 3.9375 15 4.875C15 5.2125 14.95 5.53125 14.85 5.83125C14.75 6.13125 14.625 6.4125 14.475 6.675ZM11.625 6.75C12.15 6.75 12.5938 6.56875 12.9563 6.20625C13.3188 5.84375 13.5 5.4 13.5 4.875C13.5 4.35 13.3188 3.90625 12.9563 3.54375C12.5938 3.18125 12.15 3 11.625 3C11.1 3 10.6562 3.18125 10.2938 3.54375C9.93125 3.90625 9.75 4.35 9.75 4.875C9.75 5.4 9.93125 5.84375 10.2938 6.20625C10.6562 6.56875 11.1 6.75 11.625 6.75ZM3 15V4.5V9.75V9.525V15Z" fill="#E65006"/>
</g>
</svg>
