<svg width="18" height="18" viewBox="0 0 18 18" fill="none" xmlns="http://www.w3.org/2000/svg">
<mask id="mask0_27698_85195" style="mask-type:alpha" maskUnits="userSpaceOnUse" x="0" y="0" width="18" height="18">
<rect width="18" height="18" fill="#D9D9D9"/>
</mask>
<g mask="url(#mask0_27698_85195)">
<path d="M3.75 16.5C3.125 16.5 2.59375 16.2813 2.15625 15.8438C1.71875 15.4062 1.5 14.875 1.5 14.25C1.5 13.7625 1.64062 13.325 1.92188 12.9375C2.20312 12.55 2.5625 12.2813 3 12.1313V10.5C3 9.875 3.21875 9.34375 3.65625 8.90625C4.09375 8.46875 4.625 8.25 5.25 8.25H8.25V5.86875C7.8125 5.71875 7.45312 5.45 7.17188 5.0625C6.89062 4.675 6.75 4.2375 6.75 3.75C6.75 3.125 6.96875 2.59375 7.40625 2.15625C7.84375 1.71875 8.375 1.5 9 1.5C9.625 1.5 10.1562 1.71875 10.5938 2.15625C11.0313 2.59375 11.25 3.125 11.25 3.75C11.25 4.2375 11.1094 4.675 10.8281 5.0625C10.5469 5.45 10.1875 5.71875 9.75 5.86875V8.25H12.75C13.375 8.25 13.9062 8.46875 14.3438 8.90625C14.7813 9.34375 15 9.875 15 10.5V12.1313C15.4375 12.2813 15.7969 12.55 16.0781 12.9375C16.3594 13.325 16.5 13.7625 16.5 14.25C16.5 14.875 16.2813 15.4062 15.8438 15.8438C15.4062 16.2813 14.875 16.5 14.25 16.5C13.625 16.5 13.0938 16.2813 12.6562 15.8438C12.2187 15.4062 12 14.875 12 14.25C12 13.7625 12.1406 13.325 12.4219 12.9375C12.7031 12.55 13.0625 12.2813 13.5 12.1313V10.5C13.5 10.2875 13.4281 10.1094 13.2844 9.96563C13.1406 9.82188 12.9625 9.75 12.75 9.75H9.75V12.1313C10.1875 12.2813 10.5469 12.55 10.8281 12.9375C11.1094 13.325 11.25 13.7625 11.25 14.25C11.25 14.875 11.0313 15.4062 10.5938 15.8438C10.1562 16.2813 9.625 16.5 9 16.5C8.375 16.5 7.84375 16.2813 7.40625 15.8438C6.96875 15.4062 6.75 14.875 6.75 14.25C6.75 13.7625 6.89062 13.325 7.17188 12.9375C7.45312 12.55 7.8125 12.2813 8.25 12.1313V9.75H5.25C5.0375 9.75 4.85937 9.82188 4.71562 9.96563C4.57187 10.1094 4.5 10.2875 4.5 10.5V12.1313C4.9375 12.2813 5.29688 12.55 5.57812 12.9375C5.85938 13.325 6 13.7625 6 14.25C6 14.875 5.78125 15.4062 5.34375 15.8438C4.90625 16.2813 4.375 16.5 3.75 16.5ZM3.75 15C3.9625 15 4.14063 14.9281 4.28438 14.7844C4.42813 14.6406 4.5 14.4625 4.5 14.25C4.5 14.0375 4.42813 13.8594 4.28438 13.7156C4.14063 13.5719 3.9625 13.5 3.75 13.5C3.5375 13.5 3.35938 13.5719 3.21563 13.7156C3.07188 13.8594 3 14.0375 3 14.25C3 14.4625 3.07188 14.6406 3.21563 14.7844C3.35938 14.9281 3.5375 15 3.75 15ZM9 15C9.2125 15 9.39063 14.9281 9.53438 14.7844C9.67813 14.6406 9.75 14.4625 9.75 14.25C9.75 14.0375 9.67813 13.8594 9.53438 13.7156C9.39063 13.5719 9.2125 13.5 9 13.5C8.7875 13.5 8.60938 13.5719 8.46563 13.7156C8.32188 13.8594 8.25 14.0375 8.25 14.25C8.25 14.4625 8.32188 14.6406 8.46563 14.7844C8.60938 14.9281 8.7875 15 9 15ZM14.25 15C14.4625 15 14.6406 14.9281 14.7844 14.7844C14.9281 14.6406 15 14.4625 15 14.25C15 14.0375 14.9281 13.8594 14.7844 13.7156C14.6406 13.5719 14.4625 13.5 14.25 13.5C14.0375 13.5 13.8594 13.5719 13.7156 13.7156C13.5719 13.8594 13.5 14.0375 13.5 14.25C13.5 14.4625 13.5719 14.6406 13.7156 14.7844C13.8594 14.9281 14.0375 15 14.25 15ZM9 4.5C9.2125 4.5 9.39063 4.42813 9.53438 4.28438C9.67813 4.14063 9.75 3.9625 9.75 3.75C9.75 3.5375 9.67813 3.35938 9.53438 3.21563C9.39063 3.07188 9.2125 3 9 3C8.7875 3 8.60938 3.07188 8.46563 3.21563C8.32188 3.35938 8.25 3.5375 8.25 3.75C8.25 3.9625 8.32188 4.14063 8.46563 4.28438C8.60938 4.42813 8.7875 4.5 9 4.5Z" fill="#E65006"/>
</g>
</svg>
