<svg width="20" height="20" viewBox="0 0 20 20" fill="none" xmlns="http://www.w3.org/2000/svg">
<mask id="mask0_26693_44695" style="mask-type:alpha" maskUnits="userSpaceOnUse" x="0" y="0" width="20" height="20">
<rect width="20" height="20" fill="#D9D9D9"/>
</mask>
<g mask="url(#mask0_26693_44695)">
<path d="M5 22C4.16667 22 3.45833 21.7083 2.875 21.125C2.29167 20.5417 2 19.8333 2 19C2 18.35 2.1875 17.7667 2.5625 17.25C2.9375 16.7333 3.41667 16.375 4 16.175V14C4 13.1667 4.29167 12.4583 4.875 11.875C5.45833 11.2917 6.16667 11 7 11H11V7.825C10.4167 7.625 9.9375 7.26667 9.5625 6.75C9.1875 6.23333 9 5.65 9 5C9 4.16667 9.29167 3.45833 9.875 2.875C10.4583 2.29167 11.1667 2 12 2C12.8333 2 13.5417 2.29167 14.125 2.875C14.7083 3.45833 15 4.16667 15 5C15 5.65 14.8125 6.23333 14.4375 6.75C14.0625 7.26667 13.5833 7.625 13 7.825V11H17C17.8333 11 18.5417 11.2917 19.125 11.875C19.7083 12.4583 20 13.1667 20 14V16.175C20.5833 16.375 21.0625 16.7333 21.4375 17.25C21.8125 17.7667 22 18.35 22 19C22 19.8333 21.7083 20.5417 21.125 21.125C20.5417 21.7083 19.8333 22 19 22C18.1667 22 17.4583 21.7083 16.875 21.125C16.2917 20.5417 16 19.8333 16 19C16 18.35 16.1875 17.7667 16.5625 17.25C16.9375 16.7333 17.4167 16.375 18 16.175V14C18 13.7167 17.9042 13.4792 17.7125 13.2875C17.5208 13.0958 17.2833 13 17 13H13V16.175C13.5833 16.375 14.0625 16.7333 14.4375 17.25C14.8125 17.7667 15 18.35 15 19C15 19.8333 14.7083 20.5417 14.125 21.125C13.5417 21.7083 12.8333 22 12 22C11.1667 22 10.4583 21.7083 9.875 21.125C9.29167 20.5417 9 19.8333 9 19C9 18.35 9.1875 17.7667 9.5625 17.25C9.9375 16.7333 10.4167 16.375 11 16.175V13H7C6.71667 13 6.47917 13.0958 6.2875 13.2875C6.09583 13.4792 6 13.7167 6 14V16.175C6.58333 16.375 7.0625 16.7333 7.4375 17.25C7.8125 17.7667 8 18.35 8 19C8 19.8333 7.70833 20.5417 7.125 21.125C6.54167 21.7083 5.83333 22 5 22ZM5 20C5.28333 20 5.52083 19.9042 5.7125 19.7125C5.90417 19.5208 6 19.2833 6 19C6 18.7167 5.90417 18.4792 5.7125 18.2875C5.52083 18.0958 5.28333 18 5 18C4.71667 18 4.47917 18.0958 4.2875 18.2875C4.09583 18.4792 4 18.7167 4 19C4 19.2833 4.09583 19.5208 4.2875 19.7125C4.47917 19.9042 4.71667 20 5 20ZM12 20C12.2833 20 12.5208 19.9042 12.7125 19.7125C12.9042 19.5208 13 19.2833 13 19C13 18.7167 12.9042 18.4792 12.7125 18.2875C12.5208 18.0958 12.2833 18 12 18C11.7167 18 11.4792 18.0958 11.2875 18.2875C11.0958 18.4792 11 18.7167 11 19C11 19.2833 11.0958 19.5208 11.2875 19.7125C11.4792 19.9042 11.7167 20 12 20ZM19 20C19.2833 20 19.5208 19.9042 19.7125 19.7125C19.9042 19.5208 20 19.2833 20 19C20 18.7167 19.9042 18.4792 19.7125 18.2875C19.5208 18.0958 19.2833 18 19 18C18.7167 18 18.4792 18.0958 18.2875 18.2875C18.0958 18.4792 18 18.7167 18 19C18 19.2833 18.0958 19.5208 18.2875 19.7125C18.4792 19.9042 18.7167 20 19 20ZM12 6C12.2833 6 12.5208 5.90417 12.7125 5.7125C12.9042 5.52083 13 5.28333 13 5C13 4.71667 12.9042 4.47917 12.7125 4.2875C12.5208 4.09583 12.2833 4 12 4C11.7167 4 11.4792 4.09583 11.2875 4.2875C11.0958 4.47917 11 4.71667 11 5C11 5.28333 11.0958 5.52083 11.2875 5.7125C11.4792 5.90417 11.7167 6 12 6Z" fill="#E65006"/>
</g>
</svg>
